<svg width="16" height="16" viewBox="0 0 16 16" fill="none" xmlns="http://www.w3.org/2000/svg">
    <path d="M10 5C12.6234 5 14.75 7.12665 14.75 9.75C14.75 10.5203 14.5649 11.2488 14.2383 11.8936L14.6689 13.498C14.7382 13.7568 14.664 14.0332 14.4746 14.2227C14.2852 14.4121 14.0088 14.4863 13.75 14.417L12.1465 13.9863C11.501 14.3139 10.7716 14.5 10 14.5C7.37665 14.5 5.25 12.3734 5.25 9.75C5.25 7.12665 7.37665 5 10 5ZM10 6.5C8.20507 6.5 6.75 7.95507 6.75 9.75C6.75 11.5449 8.20507 13 10 13C10.6104 13 11.1794 12.8322 11.666 12.541L11.7324 12.5059C11.8918 12.431 12.0735 12.414 12.2451 12.46L12.8828 12.6309L12.7119 11.9922C12.6594 11.7963 12.689 11.5872 12.793 11.4131C13.0831 10.9271 13.25 10.3592 13.25 9.75C13.25 7.95507 11.7949 6.5 10 6.5ZM5.5 2C6.65758 2.00007 7.70891 2.4636 8.47461 3.21387C8.77045 3.50378 8.77526 3.97955 8.48535 4.27539C8.19543 4.57111 7.71963 4.576 7.42383 4.28613C6.92714 3.79948 6.24938 3.50007 5.5 3.5C3.98133 3.50013 2.75 4.7313 2.75 6.25C2.75 6.76571 2.89125 7.24612 3.13672 7.65723C3.24068 7.8313 3.26927 8.04048 3.2168 8.23633L3.10938 8.63867L3.51074 8.53125C3.91082 8.42405 4.32246 8.66146 4.42969 9.06152C4.53673 9.46144 4.29924 9.87216 3.89941 9.97949L2.24316 10.4238C1.98445 10.4931 1.70797 10.4188 1.51855 10.2295C1.32919 10.04 1.25491 9.76363 1.32422 9.50488L1.69238 8.13477C1.41038 7.56595 1.25 6.92614 1.25 6.25C1.25 3.90287 3.1529 2.00013 5.5 2Z" fill="black"/>
</svg>
