<svg width="16" height="16" viewBox="0 0 16 16" fill="none" xmlns="http://www.w3.org/2000/svg">
    <path d="M10.8716 11.8061C11.1297 12.0642 11.5482 12.0642 11.8063 11.8061C12.0643 11.548 12.0643 11.1295 11.8063 10.8714L8.93459 7.99976L11.8063 5.12803C12.0644 4.86993 12.0644 4.45148 11.8063 4.19339C11.5482 3.93529 11.1298 3.93529 10.8717 4.19339L7.99994 7.06512L5.12821 4.19339C4.87012 3.93529 4.45166 3.93529 4.19357 4.19339C3.93548 4.45148 3.93548 4.86993 4.19357 5.12803L7.0653 7.99976L4.19364 10.8714C3.93554 11.1295 3.93554 11.548 4.19364 11.8061C4.45173 12.0642 4.87018 12.0642 5.12828 11.8061L7.99994 8.9344L10.8716 11.8061Z" fill="#0C1014"/>
</svg>
