<svg width="16" height="16" viewBox="0 0 16 16" fill="none" xmlns="http://www.w3.org/2000/svg">
    <path d="M12.6667 6.55676H11.2443V5.58158C11.2443 3.21515 10.1661 2.03193 8.00978 2.03193C7.03553 2.03193 6.26262 2.34399 5.69106 2.9681C5.13249 3.57922 4.85321 4.47638 4.85321 5.65959V10.3209C4.85321 11.4261 5.1195 12.3103 5.65209 12.9734C6.18468 13.6365 6.9511 13.9681 7.95133 13.9681H8.06824C9.01651 13.9681 9.75045 13.7146 10.27 13.2075C10.8026 12.7134 11.0689 12.0633 11.0689 11.2571V10.4185C11.0689 9.96338 11.017 9.59281 10.9131 9.30676C10.8221 9.0077 10.6662 8.78016 10.4454 8.62413V9.28725C10.4454 10.1974 10.2311 10.8995 9.80241 11.3936C9.38673 11.8747 8.79568 12.1153 8.02927 12.1153C7.37977 12.1153 6.83419 11.9007 6.39253 11.4717C5.95086 11.0296 5.73003 10.4445 5.73003 9.71633C5.73003 8.96219 5.94437 8.36409 6.37304 7.922C6.8147 7.47992 7.43173 7.25888 8.22412 7.25888H9.1594V6.45924C9.1594 5.57508 8.80867 5.133 8.10721 5.133C7.76947 5.133 7.51616 5.24352 7.34729 5.46456C7.17842 5.6856 7.09399 5.96515 7.09399 6.30321V6.73229H5.84694V6.34222C5.84694 5.53607 6.06128 4.92496 6.48995 4.50888C6.91862 4.09281 7.45771 3.88477 8.10721 3.88477C9.66601 3.88477 10.4454 4.71692 10.4454 6.38123V7.39541C11.7964 7.74647 12.4719 8.83217 12.4719 10.6525V11.1596C12.4719 12.5118 12.0562 13.5455 11.2248 14.2607C10.3935 14.9758 9.32827 15.3334 8.02927 15.3334H7.95133C7.06801 15.3334 6.27562 15.1383 5.57415 14.7482C4.88568 14.3712 4.3401 13.8121 3.93741 13.0709C3.53472 12.3298 3.33337 11.4521 3.33337 10.438V5.58158C3.33337 4.54139 3.53472 3.65073 3.93741 2.90959C4.35309 2.16846 4.91166 1.60936 5.61312 1.23229C6.31458 0.855221 7.11347 0.666687 8.00978 0.666687C9.47766 0.666687 10.6208 1.08926 11.4392 1.93442C12.2575 2.77957 12.6667 3.99529 12.6667 5.58158V6.55676ZM7.9903 10.867C8.40598 10.867 8.70475 10.737 8.88661 10.477C9.06847 10.2039 9.1594 9.79435 9.1594 9.24825V8.35108H8.2436C7.84091 8.35108 7.52915 8.4616 7.30832 8.68264C7.08749 8.90368 6.97708 9.22874 6.97708 9.65782C6.97708 10.0219 7.0745 10.3144 7.26935 10.5355C7.4642 10.7565 7.70452 10.867 7.9903 10.867Z" fill="#0C1014"/>
</svg>
