<svg width="16" height="16" viewBox="0 0 16 16" fill="none" xmlns="http://www.w3.org/2000/svg">
    <path d="M4.66663 9.00001C5.21891 9.00001 5.66663 8.55229 5.66663 8C5.66663 7.44772 5.21891 7 4.66663 7C4.11434 7 3.66663 7.44772 3.66663 8C3.66663 8.55229 4.11434 9.00001 4.66663 9.00001Z" fill="#0C1014"/>
    <path d="M8.99996 8C8.99996 8.55229 8.55224 9.00001 7.99996 9.00001C7.44767 9.00001 6.99996 8.55229 6.99996 8C6.99996 7.44772 7.44767 7 7.99996 7C8.55224 7 8.99996 7.44772 8.99996 8Z" fill="#0C1014"/>
    <path d="M12.3333 8C12.3333 8.55229 11.8856 9.00001 11.3333 9.00001C10.781 9.00001 10.3333 8.55229 10.3333 8C10.3333 7.44772 10.781 7 11.3333 7C11.8856 7 12.3333 7.44772 12.3333 8Z" fill="#0C1014"/>
</svg>
