<svg width="16" height="16" viewBox="0 0 16 16" fill="none" xmlns="http://www.w3.org/2000/svg">
    <path d="M15.0001 5.00031H11.7139L9.14248 1.00031H11.0001C13.2093 1.00031 15.0001 2.79117 15.0001 5.00031Z" fill="#0C1014"/>
    <path d="M5.00012 1.00031H7.95367L10.5251 5.00031H7.04704L4.49585 1.03179C4.66101 1.01101 4.82932 1.00031 5.00012 1.00031Z" fill="#0C1014"/>
    <path d="M3.4792 1.2996C2.02438 1.89815 1.00012 3.32961 1.00012 5.00031H5.85823L3.4792 1.2996Z" fill="#0C1014"/>
    <path fill-rule="evenodd" clip-rule="evenodd" d="M1.00012 5.99998H15.0001V11C15.0001 13.2091 13.2093 15 11.0001 15H5.00012C2.79098 15 1.00012 13.2091 1.00012 11V5.99998ZM10.3401 9.97412C10.5535 10.0967 10.5535 10.4032 10.3401 10.5258L6.98012 12.4568C6.76679 12.5794 6.50012 12.4262 6.50012 12.181V8.31899C6.50012 8.07378 6.76679 7.92053 6.98012 8.04313L10.3401 9.97412Z" fill="#0C1014"/>
</svg>
