<svg width="24" height="24" viewBox="0 0 24 24" fill="none" xmlns="http://www.w3.org/2000/svg">
    <path d="M12.4104 9.08812C12.4454 9.10382 12.4795 9.12154 12.5126 9.14125L19.4963 13.1319C19.9758 13.4059 20.1424 14.0168 19.8684 14.4963C19.5944 14.9758 18.9835 15.1424 18.504 14.8684L12.0002 11.1519L5.49631 14.8684C5.01679 15.1424 4.40594 14.9758 4.13193 14.4963C3.85792 14.0168 4.02452 13.4059 4.50403 13.1319L11.4878 9.14122C11.5209 9.12152 11.555 9.10381 11.5899 9.08812C11.7223 9.02838 11.8622 8.99983 12.0005 9C12.1386 8.99992 12.2782 9.02847 12.4104 9.08812Z" fill="#0C1014"/>
</svg>
