<svg width="24" height="24" viewBox="0 0 24 24" fill="none" xmlns="http://www.w3.org/2000/svg">
    <path fill-rule="evenodd" clip-rule="evenodd" d="M8.76668 1.22401C8.93633 0.433956 10.0636 0.433959 10.2332 1.22401L11.0024 4.80563C11.023 4.9018 11.0981 4.97692 11.1943 4.99757L14.7759 5.76668C15.566 5.93633 15.566 7.06359 14.7759 7.23325L11.1943 8.00236C11.0981 8.02301 11.023 8.09813 11.0024 8.1943L10.2332 11.7759C10.0636 12.566 8.93633 12.566 8.76668 11.7759L7.99757 8.19429C7.97692 8.09813 7.9018 8.02301 7.80563 8.00236L4.22401 7.23325C3.43396 7.06359 3.43396 5.93633 4.22401 5.76668L7.80563 4.99757C7.9018 4.97692 7.97692 4.9018 7.99757 4.80563L8.76668 1.22401ZM17.2667 10.224C17.4363 9.43396 18.5636 9.43395 18.7332 10.224L19.414 13.394C19.4346 13.4902 19.5097 13.5653 19.6059 13.586L22.7759 14.2667C23.566 14.4363 23.566 15.5636 22.7759 15.7332L19.6059 16.414C19.5097 16.4346 19.4346 16.5097 19.414 16.6059L18.7332 19.7759C18.5636 20.566 17.4363 20.566 17.2667 19.7759L16.586 16.6059C16.5653 16.5097 16.4902 16.4346 16.394 16.414L13.224 15.7332C12.434 15.5636 12.434 14.4363 13.224 14.2667L16.394 13.586C16.4902 13.5653 16.5653 13.4902 16.586 13.394L17.2667 10.224ZM4.76668 14.224C4.93633 13.434 6.06359 13.434 6.23325 14.224L6.82558 16.9824C6.84623 17.0786 6.92135 17.1537 7.01752 17.1743L9.77592 17.7667C10.566 17.9363 10.566 19.0636 9.77592 19.2332L7.01752 19.8256C6.92135 19.8462 6.84623 19.9214 6.82558 20.0175L6.23325 22.7759C6.06359 23.566 4.93633 23.566 4.76668 22.7759L4.17435 20.0175C4.1537 19.9214 4.07858 19.8462 3.98241 19.8256L1.22401 19.2332C0.433959 19.0636 0.433956 17.9363 1.22401 17.7667L3.98241 17.1743C4.07858 17.1537 4.1537 17.0786 4.17435 16.9824L4.76668 14.224Z" fill="#0C1014"/>
</svg>
