<svg width="24" height="24" viewBox="0 0 24 24" fill="none" xmlns="http://www.w3.org/2000/svg">
    <path d="M4 4C4 3.44772 4.44772 3 5 3H7C7.55228 3 8 3.44772 8 4V7C8 7.55228 7.55228 8 7 8H5C4.44772 8 4 7.55228 4 7V4Z" fill="#0C1014"/>
    <path d="M4 10.5C4 9.94772 4.44772 9.5 5 9.5H7C7.55228 9.5 8 9.94772 8 10.5V13.5C8 14.0523 7.55228 14.5 7 14.5H5C4.44772 14.5 4 14.0523 4 13.5V10.5Z" fill="#0C1014"/>
    <path d="M4 17C4 16.4477 4.44772 16 5 16H7C7.55228 16 8 16.4477 8 17V20C8 20.5523 7.55228 21 7 21H5C4.44772 21 4 20.5523 4 20V17Z" fill="#0C1014"/>
    <path d="M10 4C10 3.44772 10.4477 3 11 3H13C13.5523 3 14 3.44772 14 4V7C14 7.55228 13.5523 8 13 8H11C10.4477 8 10 7.55228 10 7V4Z" fill="#0C1014"/>
    <path d="M10 10.5C10 9.94772 10.4477 9.5 11 9.5H13C13.5523 9.5 14 9.94772 14 10.5V13.5C14 14.0523 13.5523 14.5 13 14.5H11C10.4477 14.5 10 14.0523 10 13.5V10.5Z" fill="#0C1014"/>
    <path d="M10 17C10 16.4477 10.4477 16 11 16H13C13.5523 16 14 16.4477 14 17V20C14 20.5523 13.5523 21 13 21H11C10.4477 21 10 20.5523 10 20V17Z" fill="#0C1014"/>
    <path d="M16 4C16 3.44772 16.4477 3 17 3H19C19.5523 3 20 3.44772 20 4V7C20 7.55228 19.5523 8 19 8H17C16.4477 8 16 7.55228 16 7V4Z" fill="#0C1014"/>
    <path d="M16 10.5C16 9.94772 16.4477 9.5 17 9.5H19C19.5523 9.5 20 9.94772 20 10.5V13.5C20 14.0523 19.5523 14.5 19 14.5H17C16.4477 14.5 16 14.0523 16 13.5V10.5Z" fill="#0C1014"/>
    <path d="M16 17C16 16.4477 16.4477 16 17 16H19C19.5523 16 20 16.4477 20 17V20C20 20.5523 19.5523 21 19 21H17C16.4477 21 16 20.5523 16 20V17Z" fill="#0C1014"/>
</svg>
