<svg width="24" height="24" viewBox="0 0 24 24" fill="none" xmlns="http://www.w3.org/2000/svg">
    <path fill-rule="evenodd" clip-rule="evenodd" d="M9.97179 4.3536C12.6433 1.6821 16.9748 1.6821 19.6463 4.3536C22.3179 7.0251 22.3179 11.3565 19.6463 14.0279L18.8437 14.8305C18.3885 15.2858 17.6503 15.2858 17.1951 14.8305C16.7398 14.3753 16.7398 13.6371 17.1951 13.1819L17.9977 12.3793C19.7587 10.6183 19.7587 7.76321 17.9977 6.00223C16.2366 4.24124 13.3815 4.24124 11.6204 6.00223L10.8179 6.8048C10.3626 7.26006 9.62446 7.26006 9.1692 6.8048C8.71394 6.34954 8.71393 5.61143 9.1692 5.15617L9.97179 4.3536ZM14.329 7.90816C14.7842 7.45291 15.5224 7.45291 15.9776 7.90816C16.4329 8.36342 16.4329 9.10154 15.9776 9.5568L9.55694 15.9774C9.10168 16.4326 8.36355 16.4326 7.90829 15.9774C7.45302 15.5221 7.45302 14.784 7.90829 14.3287L14.329 7.90816ZM5.15622 9.16943C5.61149 8.71418 6.34962 8.71418 6.80488 9.16943C7.26014 9.62469 7.26014 10.3628 6.80488 10.8181L6.00229 11.6206C4.24127 13.3816 4.24127 16.2367 6.00229 17.9977C7.76331 19.7587 10.6185 19.7587 12.3795 17.9977L13.1821 17.1952C13.6374 16.7399 14.3755 16.7399 14.8308 17.1952C15.286 17.6504 15.286 18.3885 14.8308 18.8438L14.0282 19.6464C11.3566 22.3179 7.02518 22.3179 4.35364 19.6464C1.68209 16.9749 1.68209 12.6435 4.35364 9.972L5.15622 9.16943Z" fill="#0C1014"/>
</svg>
