<svg width="24" height="24" viewBox="0 0 24 24" fill="none" xmlns="http://www.w3.org/2000/svg">
    <path fill-rule="evenodd" clip-rule="evenodd" d="M8 9.42578C8 7.75368 9.86447 6.26074 11.6455 7.35254L15.8457 9.92676L15.9854 10.0195C17.3382 10.979 17.3382 13.021 15.9854 13.9805L15.8457 14.0732L11.6455 16.6475C9.86446 17.7393 8 16.2463 8 14.5742V9.42578ZM10.5996 9.05762C10.3497 8.90468 10.0417 9.07428 10.0039 9.36523L10 9.42578V14.5742L10.0039 14.6348C10.0391 14.9063 10.3098 15.072 10.5488 14.9688L10.5996 14.9424L14.7998 12.3682C15.0665 12.2047 15.0665 11.7953 14.7998 11.6318L10.5996 9.05762Z" fill="black"/>
    <path fill-rule="evenodd" clip-rule="evenodd" d="M16.3086 2.00781C19.4789 2.16843 22 4.78979 22 8V16L21.9922 16.3086C21.8368 19.3767 19.3767 21.8368 16.3086 21.9922L16 22H8C4.78979 22 2.16843 19.4789 2.00781 16.3086L2 16V8C2 4.68629 4.68629 2 8 2H16L16.3086 2.00781ZM8 4C5.79086 4 4 5.79086 4 8V16C4 18.2091 5.79086 20 8 20H16C18.2091 20 20 18.2091 20 16V8C20 5.79086 18.2091 4 16 4H8Z" fill="black"/>
</svg>
