<svg width="24" height="24" viewBox="0 0 24 24" fill="none" xmlns="http://www.w3.org/2000/svg">
    <path d="M10.4395 1.43945C11.0252 0.853667 11.9748 0.853667 12.5605 1.43945L16.0605 4.93945C16.6463 5.52524 16.6463 6.47477 16.0605 7.06055L12.5605 10.5605C11.9748 11.1463 11.0252 11.1463 10.4395 10.5605C9.85368 9.97477 9.8537 9.02524 10.4395 8.43945L11.3789 7.5H8.5C7.11929 7.5 6 8.61929 6 10V13.5C5.99996 14.3284 5.3284 15 4.5 15C3.6716 15 3.00004 14.3284 3 13.5L3 10C3 6.96243 5.46243 4.5 8.5 4.5L11.3789 4.5L10.4395 3.56055C9.85368 2.97477 9.8537 2.02524 10.4395 1.43945Z" fill="#0C1014"/>
    <path d="M13.5605 22.5604C12.9748 23.1462 12.0252 23.1462 11.4395 22.5604L7.93945 19.0604C7.35371 18.4746 7.35368 17.5251 7.93945 16.9393L11.4395 13.4393C12.0252 12.8536 12.9748 12.8536 13.5605 13.4393C14.1463 14.0251 14.1463 14.9746 13.5605 15.5604L12.6211 16.4999H15.5C16.8807 16.4999 18 15.3806 18 13.9999V10.4999C18 9.67149 18.6716 8.99988 19.5 8.99988C20.3284 8.99988 21 9.67149 21 10.4999L21 13.9999C21 17.0374 18.5376 19.4999 15.5 19.4999H12.6211L13.5605 20.4393C14.1463 21.0251 14.1463 21.9746 13.5605 22.5604Z" fill="#0C1014"/>
</svg>
