<svg width="24" height="24" viewBox="0 0 24 24" fill="none" xmlns="http://www.w3.org/2000/svg">
    <path d="M11.3076 2.27649C11.6022 2.18352 12.398 2.18445 12.6924 2.27747C12.9295 2.35246 13.1017 2.47956 13.2148 2.57532C13.3123 2.65784 13.4145 2.76024 13.5 2.84583L14.4141 4.00012H17.8193C18.3553 4.0001 18.8176 3.99977 19.1982 4.03137C19.6001 4.06475 19.9995 4.13892 20.3828 4.33801C20.9307 4.62264 21.3775 5.06938 21.6621 5.61731C21.8612 6.00055 21.9354 6.40003 21.9688 6.80188C22.0003 7.1825 22 7.64486 22 8.18079V17.8195C22 18.3553 22.0004 18.8178 21.9688 19.1984C21.9354 19.6002 21.8612 19.9997 21.6621 20.3829C21.3775 20.9308 20.9307 21.3776 20.3828 21.6622C19.9996 21.8613 19.6001 21.9355 19.1982 21.9689C18.8176 22.0005 18.3553 22.0001 17.8193 22.0001H6.18066C5.64477 22.0001 5.18236 22.0005 4.80176 21.9689C4.3999 21.9355 4.00043 21.8613 3.61719 21.6622C3.06927 21.3776 2.62252 20.9308 2.33789 20.3829C2.1388 19.9997 2.06463 19.6002 2.03125 19.1984C1.99964 18.8178 1.99998 18.3554 2 17.8195V8.18079C1.99998 7.64486 1.99965 7.1825 2.03125 6.80188C2.06462 6.40003 2.13884 6.00054 2.33789 5.61731C2.62252 5.06938 3.06926 4.62264 3.61719 4.33801C4.00045 4.13892 4.39987 4.06475 4.80176 4.03137C5.18238 3.99977 5.64473 4.0001 6.18066 4.00012H9.58594L10.5 2.84583C10.5855 2.76024 10.6877 2.65785 10.7852 2.57532C10.8983 2.47956 11.0705 2.35149 11.3076 2.27649ZM12 16.0001C9.62126 16.0001 7.51983 17.1866 6.25488 19.0001H17.7451C16.4802 17.1866 14.3787 16.0001 12 16.0001ZM12 8.00012C10.3431 8.00012 9 9.34327 9 11.0001C9.00007 12.6569 10.3432 14.0001 12 14.0001C13.6568 14.0001 14.9999 12.6569 15 11.0001C15 9.34327 13.6569 8.00012 12 8.00012Z" fill="#0C1014"/>
</svg>
