<svg width="32" height="32" viewBox="0 0 32 32" fill="none" xmlns="http://www.w3.org/2000/svg">
    <path fill-rule="evenodd" clip-rule="evenodd" d="M16 6.33325C10.6613 6.33325 6.33337 10.6612 6.33337 15.9999C6.33337 21.3387 10.6613 25.6666 16 25.6666C17.8136 25.6666 19.5076 25.1681 20.9561 24.3014C21.1883 24.1624 21.467 24.1235 21.7284 24.1935L25.1036 25.0979L24.1985 21.7201C24.1286 21.4589 24.1673 21.1806 24.3059 20.9485C25.17 19.5017 25.6667 17.8103 25.6667 15.9999C25.6667 10.6612 21.3388 6.33325 16 6.33325ZM4.33337 15.9999C4.33337 9.5566 9.55672 4.33325 16 4.33325C22.4434 4.33325 27.6667 9.5566 27.6667 15.9999C27.6667 18.0277 27.1486 19.9371 26.237 21.6002L27.4838 26.2533C27.5762 26.5984 27.4776 26.9666 27.225 27.2192C26.9723 27.4719 26.6041 27.5705 26.259 27.4781L21.609 26.2321C19.9439 27.1466 18.0313 27.6666 16 27.6666C9.55672 27.6666 4.33337 22.4432 4.33337 15.9999Z" fill="#0C1014"/>
</svg>
